<mxfile host="Electron" modified="2024-04-07T20:22:43.793Z" agent="Mozilla/5.0 (Windows NT 10.0; Win64; x64) AppleWebKit/537.36 (KHTML, like Gecko) draw.io/24.1.0 Chrome/120.0.6099.109 Electron/28.1.0 Safari/537.36" etag="xfJRalTfxw97nFvBvGJQ" version="24.1.0" type="device">
  <diagram id="C5RBs43oDa-KdzZeNtuy" name="Page-1">
    <mxGraphModel dx="574" dy="334" grid="1" gridSize="10" guides="1" tooltips="1" connect="1" arrows="1" fold="1" page="1" pageScale="1" pageWidth="1169" pageHeight="827" math="0" shadow="0">
      <root>
        <mxCell id="WIyWlLk6GJQsqaUBKTNV-0" />
        <mxCell id="WIyWlLk6GJQsqaUBKTNV-1" parent="WIyWlLk6GJQsqaUBKTNV-0" />
        <mxCell id="JT0SS7sjU9HlFHSo2rUm-0" value="Diagrama General Solución&lt;div style=&quot;font-size: 16px;&quot;&gt;1. Ingeniería de datos + Cloud.&lt;br style=&quot;font-size: 16px;&quot;&gt;&lt;/div&gt;" style="text;html=1;align=center;verticalAlign=middle;whiteSpace=wrap;rounded=0;fontStyle=1;fontSize=16;" parent="WIyWlLk6GJQsqaUBKTNV-1" vertex="1">
          <mxGeometry x="463" y="10" width="244" height="50" as="geometry" />
        </mxCell>
        <mxCell id="JT0SS7sjU9HlFHSo2rUm-27" style="edgeStyle=orthogonalEdgeStyle;rounded=0;orthogonalLoop=1;jettySize=auto;html=1;entryX=0.5;entryY=0;entryDx=0;entryDy=0;dashed=1;" parent="WIyWlLk6GJQsqaUBKTNV-1" source="JT0SS7sjU9HlFHSo2rUm-1" target="JT0SS7sjU9HlFHSo2rUm-26" edge="1">
          <mxGeometry relative="1" as="geometry" />
        </mxCell>
        <mxCell id="JT0SS7sjU9HlFHSo2rUm-1" value="Desafío 1: Scrip para generar datos de forma automática" style="rounded=1;whiteSpace=wrap;html=1;" parent="WIyWlLk6GJQsqaUBKTNV-1" vertex="1">
          <mxGeometry x="80" y="130" width="120" height="60" as="geometry" />
        </mxCell>
        <mxCell id="JT0SS7sjU9HlFHSo2rUm-9" style="edgeStyle=orthogonalEdgeStyle;rounded=0;orthogonalLoop=1;jettySize=auto;html=1;entryX=0;entryY=0.5;entryDx=0;entryDy=0;" parent="WIyWlLk6GJQsqaUBKTNV-1" source="JT0SS7sjU9HlFHSo2rUm-2" target="JT0SS7sjU9HlFHSo2rUm-8" edge="1">
          <mxGeometry relative="1" as="geometry" />
        </mxCell>
        <mxCell id="05KUBlvZqv3IjBvhvH87-1" style="edgeStyle=orthogonalEdgeStyle;rounded=0;orthogonalLoop=1;jettySize=auto;html=1;entryX=0.5;entryY=0;entryDx=0;entryDy=0;" edge="1" parent="WIyWlLk6GJQsqaUBKTNV-1" source="JT0SS7sjU9HlFHSo2rUm-2" target="05KUBlvZqv3IjBvhvH87-0">
          <mxGeometry relative="1" as="geometry" />
        </mxCell>
        <mxCell id="JT0SS7sjU9HlFHSo2rUm-2" value=".csv" style="whiteSpace=wrap;html=1;shape=mxgraph.basic.document" parent="WIyWlLk6GJQsqaUBKTNV-1" vertex="1">
          <mxGeometry x="240" y="130" width="50" height="60" as="geometry" />
        </mxCell>
        <mxCell id="JT0SS7sjU9HlFHSo2rUm-3" style="edgeStyle=orthogonalEdgeStyle;rounded=0;orthogonalLoop=1;jettySize=auto;html=1;entryX=0;entryY=0.5;entryDx=0;entryDy=0;entryPerimeter=0;" parent="WIyWlLk6GJQsqaUBKTNV-1" source="JT0SS7sjU9HlFHSo2rUm-1" target="JT0SS7sjU9HlFHSo2rUm-2" edge="1">
          <mxGeometry relative="1" as="geometry" />
        </mxCell>
        <mxCell id="JT0SS7sjU9HlFHSo2rUm-4" value="Datos Salida" style="text;html=1;align=center;verticalAlign=middle;whiteSpace=wrap;rounded=0;" parent="WIyWlLk6GJQsqaUBKTNV-1" vertex="1">
          <mxGeometry x="255" y="90" width="60" height="30" as="geometry" />
        </mxCell>
        <mxCell id="JT0SS7sjU9HlFHSo2rUm-11" style="edgeStyle=orthogonalEdgeStyle;rounded=0;orthogonalLoop=1;jettySize=auto;html=1;" parent="WIyWlLk6GJQsqaUBKTNV-1" source="JT0SS7sjU9HlFHSo2rUm-8" target="JT0SS7sjU9HlFHSo2rUm-10" edge="1">
          <mxGeometry relative="1" as="geometry" />
        </mxCell>
        <mxCell id="JT0SS7sjU9HlFHSo2rUm-19" style="edgeStyle=orthogonalEdgeStyle;rounded=0;orthogonalLoop=1;jettySize=auto;html=1;entryX=0;entryY=0.5;entryDx=0;entryDy=0;dashed=1;" parent="WIyWlLk6GJQsqaUBKTNV-1" source="JT0SS7sjU9HlFHSo2rUm-8" target="JT0SS7sjU9HlFHSo2rUm-18" edge="1">
          <mxGeometry relative="1" as="geometry" />
        </mxCell>
        <mxCell id="JT0SS7sjU9HlFHSo2rUm-8" value="Desafío 2: Almacenamiento en&amp;nbsp;Azure Blob Storage.&amp;nbsp;" style="rounded=1;whiteSpace=wrap;html=1;" parent="WIyWlLk6GJQsqaUBKTNV-1" vertex="1">
          <mxGeometry x="330" y="130" width="110" height="60" as="geometry" />
        </mxCell>
        <mxCell id="JT0SS7sjU9HlFHSo2rUm-13" style="edgeStyle=orthogonalEdgeStyle;rounded=0;orthogonalLoop=1;jettySize=auto;html=1;entryX=0;entryY=0.5;entryDx=0;entryDy=0;" parent="WIyWlLk6GJQsqaUBKTNV-1" source="JT0SS7sjU9HlFHSo2rUm-10" target="JT0SS7sjU9HlFHSo2rUm-12" edge="1">
          <mxGeometry relative="1" as="geometry" />
        </mxCell>
        <mxCell id="JT0SS7sjU9HlFHSo2rUm-20" style="edgeStyle=orthogonalEdgeStyle;rounded=0;orthogonalLoop=1;jettySize=auto;html=1;entryX=1;entryY=0.5;entryDx=0;entryDy=0;dashed=1;" parent="WIyWlLk6GJQsqaUBKTNV-1" source="JT0SS7sjU9HlFHSo2rUm-10" target="JT0SS7sjU9HlFHSo2rUm-18" edge="1">
          <mxGeometry relative="1" as="geometry" />
        </mxCell>
        <mxCell id="JT0SS7sjU9HlFHSo2rUm-10" value="Desafío 3: Uso de ADF para migrar de Azure Blob Storage a DataLake Storage.&amp;nbsp;&amp;nbsp;" style="rounded=1;whiteSpace=wrap;html=1;" parent="WIyWlLk6GJQsqaUBKTNV-1" vertex="1">
          <mxGeometry x="480" y="130" width="150" height="60" as="geometry" />
        </mxCell>
        <mxCell id="JT0SS7sjU9HlFHSo2rUm-22" style="edgeStyle=orthogonalEdgeStyle;rounded=0;orthogonalLoop=1;jettySize=auto;html=1;entryX=0;entryY=0.5;entryDx=0;entryDy=0;" parent="WIyWlLk6GJQsqaUBKTNV-1" source="JT0SS7sjU9HlFHSo2rUm-12" target="JT0SS7sjU9HlFHSo2rUm-21" edge="1">
          <mxGeometry relative="1" as="geometry" />
        </mxCell>
        <mxCell id="JT0SS7sjU9HlFHSo2rUm-12" value="Desafío 4: SQL para la creación de la view de los datos." style="rounded=1;whiteSpace=wrap;html=1;" parent="WIyWlLk6GJQsqaUBKTNV-1" vertex="1">
          <mxGeometry x="670" y="130" width="120" height="60" as="geometry" />
        </mxCell>
        <mxCell id="JT0SS7sjU9HlFHSo2rUm-18" value="En una implementación de datos real, Azure Blob Storage sería el almacenamiento fuete de los datos, el cual puede corresponder a la base de datos del proveedor.&lt;br&gt;Para el caso IOT con dispositivos que generan datos que podemos alojar directamente en un almacenamiento própio, puede ser considerado como la primera etapa de almacenamiento antes de procesar los datos.&amp;nbsp;" style="rounded=0;whiteSpace=wrap;html=1;dashed=1;" parent="WIyWlLk6GJQsqaUBKTNV-1" vertex="1">
          <mxGeometry x="410" y="250" width="120" height="320" as="geometry" />
        </mxCell>
        <mxCell id="JT0SS7sjU9HlFHSo2rUm-24" style="edgeStyle=orthogonalEdgeStyle;rounded=0;orthogonalLoop=1;jettySize=auto;html=1;entryX=0;entryY=0.5;entryDx=0;entryDy=0;" parent="WIyWlLk6GJQsqaUBKTNV-1" source="JT0SS7sjU9HlFHSo2rUm-21" target="JT0SS7sjU9HlFHSo2rUm-23" edge="1">
          <mxGeometry relative="1" as="geometry" />
        </mxCell>
        <mxCell id="JT0SS7sjU9HlFHSo2rUm-21" value="Desafío 5: Desarrollo de la API REST con python para la consulta de los datos de la vista." style="rounded=1;whiteSpace=wrap;html=1;" parent="WIyWlLk6GJQsqaUBKTNV-1" vertex="1">
          <mxGeometry x="830" y="130" width="130" height="60" as="geometry" />
        </mxCell>
        <mxCell id="JT0SS7sjU9HlFHSo2rUm-23" value="Desafío 6: Uso de AKS para la API REST" style="rounded=1;whiteSpace=wrap;html=1;" parent="WIyWlLk6GJQsqaUBKTNV-1" vertex="1">
          <mxGeometry x="1000" y="130" width="120" height="60" as="geometry" />
        </mxCell>
        <mxCell id="JT0SS7sjU9HlFHSo2rUm-26" value="Alojado en maquina local para simular el envío de datos a la nube." style="rounded=0;whiteSpace=wrap;html=1;dashed=1;" parent="WIyWlLk6GJQsqaUBKTNV-1" vertex="1">
          <mxGeometry x="95" y="250" width="90" height="80" as="geometry" />
        </mxCell>
        <mxCell id="05KUBlvZqv3IjBvhvH87-0" value="Se elije pensando en escenarios en donde se tienen cantidades pequeñas de datos ya que es más fácil de manejar.&lt;br&gt;Para casos de big data se recomienda .parquet pero todo depende de la necesidad a solucionar." style="rounded=0;whiteSpace=wrap;html=1;dashed=1;" vertex="1" parent="WIyWlLk6GJQsqaUBKTNV-1">
          <mxGeometry x="205" y="250" width="120" height="180" as="geometry" />
        </mxCell>
      </root>
    </mxGraphModel>
  </diagram>
</mxfile>
